<svg id="visual" viewBox="0 0 900 600" width="900" height="600" xmlns="http://www.w3.org/2000/svg" xmlns:xlink="http://www.w3.org/1999/xlink" version="1.1"><g transform="translate(436.6357525473121 287.0033601869842)"><path d="M164.3 -219.7C211.1 -192.2 245.8 -141.7 254.6 -88.8C263.4 -35.9 246.3 19.3 228.6 74.4C210.8 129.5 192.4 184.5 154.2 221.4C116 258.3 58 277.2 4.2 271.4C-49.6 265.6 -99.1 235.1 -139.2 198.8C-179.3 162.5 -210 120.3 -222.9 74C-235.9 27.6 -231.1 -23 -213 -66.3C-195 -109.7 -163.6 -145.9 -125.9 -176.3C-88.2 -206.7 -44.1 -231.3 7.3 -241.5C58.8 -251.6 117.6 -247.1 164.3 -219.7" fill="#ffffff"></path></g></svg>